<?xml version="1.0" encoding="UTF-8" standalone="no"?>
<svg
   xmlns:dc="http://purl.org/dc/elements/1.1/"
   xmlns:cc="http://creativecommons.org/ns#"
   xmlns:rdf="http://www.w3.org/1999/02/22-rdf-syntax-ns#"
   xmlns:svg="http://www.w3.org/2000/svg"
   xmlns="http://www.w3.org/2000/svg"
   xmlns:sodipodi="http://sodipodi.sourceforge.net/DTD/sodipodi-0.dtd"
   xmlns:inkscape="http://www.inkscape.org/namespaces/inkscape"
   width="2136"
   height="1848"
   version="1.1"
   viewBox="0 0 2136 1848"
   id="svg829"
   sodipodi:docname="DesignLogo.svg"
   inkscape:version="0.92.4 (5da689c313, 2019-01-14)">
  <defs
     id="defs833">
    <inkscape:perspective
       sodipodi:type="inkscape:persp3d"
       inkscape:vp_x="0 : 924 : 1"
       inkscape:vp_y="0 : 1000 : 0"
       inkscape:vp_z="2136 : 924 : 1"
       inkscape:persp3d-origin="1068 : 616 : 1"
       id="perspective1378" />
  </defs>
  <sodipodi:namedview
     pagecolor="#ffffff"
     bordercolor="#666666"
     borderopacity="1"
     objecttolerance="10"
     gridtolerance="10"
     guidetolerance="10"
     inkscape:pageopacity="0"
     inkscape:pageshadow="2"
     inkscape:window-width="1920"
     inkscape:window-height="1001"
     id="namedview831"
     showgrid="false"
     inkscape:zoom="0.36120606"
     inkscape:cx="800.74629"
     inkscape:cy="733.96046"
     inkscape:window-x="-9"
     inkscape:window-y="-9"
     inkscape:window-maximized="1"
     inkscape:current-layer="svg829" />
  <metadata
     id="metadata825">
    <rdf:RDF>
      <cc:Work
         rdf:about="">
        <dc:format>image/svg+xml</dc:format>
        <dc:type
           rdf:resource="http://purl.org/dc/dcmitype/StillImage" />
        <dc:title />
      </cc:Work>
    </rdf:RDF>
  </metadata>
  <path
     d="m 849.02843,1406.8608 c -20.646,-3.0654 -29.547,-24.438 -50.495,-28.13 -21.352,-18.505 -11.604,-51.197 -37.723,-67.862 -14.611,-16.617 -5.1815,-42.023 1.8392,-58.613 1.178,-26.776 63.213,-45.548 22.053,-62.602 -35.135,-36.918 -31.858,-92.697 -25.68,-139.69 5.8714,-25.467 1.9475,-51.60703 3.9522,-77.47403 -0.37758,-43.389 -8.7832,-89.5 12.224,-129.61 15.848,-15.023 -12.745,-49.568 14.981,-67.397 14.132,-24.338 59.247,-14.564 61.397,-44.729 -21.542,-27.542 15.927,-32.323 24.815,-5.3478 14.761,18.594 19.421,43.874 1.8411,61.566 -5.2812,21.827 40.178,-6.7054 54.683,-10.95 27.87,-9.1294 57.883,-8.2214 86.44497,-6.1901 25.613,1.9444 48.445,12.335 65.992,30.803 22.579,15.279 52.328,-10.728 79.216,-7.474 32.605,-2.4059 70.51,1.3301 91.5,29.4 13.585,19.902 34.084,38.626 36.879,63.781 11.603,5.119 40.674,-20.416 59.548,-3.6195 18.718,16.886 29.591,6.3848 7.6333,-7.8875 -23.163,-9.1299 -22.714,-43.12 -1.2587,-52.818 5.5987,19.899 20.959,32.028 45.458,36.838 29.942,9.9367 60.213,39.942 43.686,73.468 -15.68,30.445 -50.828,28.385 -76.498,40.846 7.8512,15.405 63.317,15.469 42.122,31.64203 -16.157,0.5541 -66.707,-20.33603 -53.064,9.853 15.37,20.441 52.829,17.046 64.654,28.975 -17.698,14.296 -57.131,-5.7862 -68.49,5.6325 9.0915,31.214 49.465,29.339 74.472,32.188 -11.601,14.726 -48.239,12.46 -69.258,10.417 -15.317,21.151 29.071,34.297 47.087,30.909 32.196,-4.963 5.2534,15.985 -11.722,14.364 -14.807,5.6399 -53.656,-0.044 -22.597,17.262 13.336,7.8539 59.409,-9.5754 48.854,8.7235 -13.596,15.575 -53.987,5.7954 -56.846,15.595 0.2972,21.932 37.276,19.72 53.277,16.387 17.983,5.5371 -19.368,21.752 -29.427,22.145 -32.008,4.531 18.828,22.076 30.02,7.5594 22.848,-3.7758 -15.343,21.271 -26.014,16.146 -4.6835,4.8822 41.364,-2.9501 47.782,18.26 23.451,21.875 5.0295,60.466 -21.708,69.572 -20.612,14.859 -48.692,20.729 -73.497,13.996 -21.145,-3.7215 -35.256,-43.478 -44.022,-7.444 -16.412,28.205 -54.45,40.202 -84.358,29.083 -20.238,-5.0827 -38.841,21.585 -60.555,23.686 -27.036,10.327 -56.389,15.652 -85.715,14.636 -36.614,1.7237 -14.131,-51.679 -45.25,-43.589 -25.596,1.7621 -46.93397,13.123 -68.27697,25.982 -19.863,18.298 -48.596,-1.6582 -61.681,0.2416 -10.884,16.555 -28.435,24.391 -48.275,21.468 z m 5.4318,-19.576 c 32.87,-2.3618 34.856,-39.83 52.734,-59.848 21.184,-25.446 56.496,-28.897 87.401,-27.964 34.22497,2.531 68.34597,6.5547 102.77997,2.8513 32.232,0.9364 68.888,-13.693 77.027,-48.018 11.903,-22.678 -18.157,-42.023 -16.87,-8.3378 -12.697,25.887 -41.323,41.39 -69.144,43.752 -25.061,5.3861 -51.784,9.1561 -77.683,3.6672 -26.33297,3.0243 -52.49897,-11.529 -78.83997,-4.3434 -25.041,0.2809 -50.542,13.927 -58.551,38.782 -1.7629,21.873 -41.959,43.397 -23.562,60.302 z m 269.96997,-13.044 c 42.84,-6.5846 89.393,-24.276 110.6,-65.189 20.381,-27.91 19.567,-69.507 -14.584,-86.124 -7.73,15.365 8.8978,49.984 -4.4834,71.398 -13.823,28.503 -42.886,46.615 -72.277,55.112 -20.175,6.6618 -42.458,3.9519 -63.336,7.376 -16.197,24.133 32.385,17.177 44.076,17.427 z m -184.16997,-9.7238 c 23.381,-10.141 44.249,-26.664 70.80097,-27.822 44.965,-7.3742 91.218,10.296 135.5,-3.1379 24.407,-9.7111 52.934,-22.388 59.622,-50.781 4.4893,-17.557 4.9816,-62.186 -17.81,-56.538 6.0725,28.821 -7.1535,60.424 -32.283,75.291 -29.914,19.104 -68.09,18.694 -102.74,19.638 -32.056,-3.7469 -63.75297,-9.6251 -94.89197,4.064 -19.194,0.3529 -55.003,23.037 -29.489,40.312 l 6.6003,-0.072 z m -117.07,-7.8516 c 26.818,0.6625 29.288,-30.173 41.648,-47.156 10.847,-25.954 39.574,-38.385 66.629,-36.765 39.5,-4.0522 79.42797,9.8618 119.17997,4.1331 30.246,-3.594 69.709,-0.7162 89.358,-29.269 18.563,-29.274 -22.22,-20.532 -33.018,-3.4344 -25.181,16.524 -55.558,19.052 -84.887,20.679 -25.47197,1.222 -50.55397,-5.4891 -75.89497,-9.1394 -28.026,-3.6132 -63.425,-10.532 -82.637,16.38 -18.993,21.881 -29.069,51.127 -55.106,64.634 -4.5767,10.456 3.2011,22.916 14.727,19.937 z m 425.32997,-17.268 c 30.147,-13.912 -30.66,-10.893 -8.1193,1.0285 l 4.5914,-0.4063 z m 18.816,-21.02 c 33.22,-11.425 24.953,-52.512 14.475,-77.33 -2.826,-21.813 -46.231,-39.312 -24.172,-6.1159 10.88,26.917 2.1967,56.098 -8.6215,80.713 4.1314,5.9588 12.581,3.495 18.318,2.7327 z m -454.43997,-3.5382 c 23.302,-17.834 28.874,-50.95 53.948,-68.598 53.765,-24.597 110.98,7.3321 166.58997,2.0962 14.592,1.7465 62.134,-9.5304 52.736,-19.816 -32.131,-1.6452 -63.782,2.693 -95.57697,-1.582 -24.074,-0.9625 -46.638,-0.449 -70.283,-4.2824 -26.066,-0.6531 -51.576,-3.3536 -77.207,-9.2839 -24.175,-2.7058 -39.426,23.582 -51.765,40.918 -9.5548,16.19 -16.476,34.982 -7.6529,53.256 7.6414,8.5888 17.918,11.758 29.211,7.2919 z m -33.581,-25.952 c 1.3962,-1.9615 1.3964,1.9614 0,0 z m 600.31997,22.114 c 19.474,1.9747 45.054,-12.156 46.725,-33.191 -3.8531,-36.6 -23.993,-4.023 -43.719,-4.0852 -27.805,0.3677 -46.911,-21.379 -52.875,-47.484 -8.8687,-30.791 -4.338,-63.148 0.4233,-94.385 1.5456,-32.96 -6.3824,-64.304 -2.9785,-97.486 3.3835,-29.272 0.2963,-59.97103 14.977,-86.91403 9.6908,-28.946 57.826,-15.419 63.854,-48.342 6.0945,-24.986 -35.727,-30.367 -22.948,-2.2435 -4.4609,38.209 -34.935,-7.827 -59.828,8.0577 -32.499,7.0796 -30.641,39.504 -30.086,66.337 0.2636,45.03203 -0.048,90.63003 -3.3101,135.83003 -0.8357,35.885 -6.0634,71.725 0.6679,107.31 1.4551,17.484 10.09,46.893 21.35,66.25 11.294,20.337 31.889,32.977 57.386,30.685 3.424,0.8612 6.8971,-1.5767 10.361,-0.3395 z m 4.9185,-49.213 c 37.799,-6.7417 -23.735,-4.3213 -17.702,-29.513 -5.7226,-24.519 -14.971,-48.584 -15.074,-74.346 0.084,-19.192 -5.9746,-56.009 -6.8789,-18.754 -3.8546,19.976 0.2489,37.228 -2.7862,58.651 0.8589,26.503 8.0011,64.504 42.441,63.962 z m 0.7514,-52.522 c 0.7527,-9.6902 -23.223,-1.936 0,0 z m -373.63,-0.9945 c 30.141,-6.9714 66.992,10.888 86.914,-20.486 11.25,-12.712 38.782,-26.235 30.753,-45.389 -26.204,-6.2713 -46.624,27.236 -72.573,12.658 -33.946,-15.387 -15.361,-58.217 -4.4491,-83.899 17.587,-43.416 37.514,-87.26903 43.147,-134.13003 -0.9256,-18.961 1.5614,-38.875 -2.8521,-57.61 -6.1807,-17.195 -16.139,-34.643 -27.896,-49.777 -21.408,-20.872 -49.95,-34.041 -78.50697,-40.966 -25.874,-1.3299 -50.585,4.2386 -73.342,14.984 -20.912,4.3584 -51.046,11.086 -66.474,3.1315 0.89331,-16.702 38.504,-37.096 23.231,-57.064 -13.633,18.853 -42.052,20.772 -53.122,42.268 -15.281,26.681 4.8641,63.581 36.431,60.983 37.156,-0.3292 74.57,-17.807 111.37,-6.6839 25.147,7.1112 41.87997,27.3 50.92297,50.292 2.932,14.397 9.7489,25.354 7.1874,42.086 4.1279,25.939 0.9674,53.442 -2.5768,80.02703 -2.9786,20.051 -7.7891,48.979 -15.884,71.478 -11.25597,36.818 -15.34197,76.195 -32.81797,110.64 10.992,4.5779 28.228,5.4785 40.54297,7.4582 z m 134.61,-4.4431 c 30.042,-6.8489 61.682,-2.0558 89.898,-16.078 22.924,-13.546 20.376,-42.724 19.396,-65.075 0.2152,-25.604 -0.4631,-49.311 1.0778,-73.778 0.1652,-11.062 7.8315,-76.24503 -6.5064,-38.834 -11.287,17.483 -2.3109,38.796 -18.477,51.148 -19.399,23.356 -50.054,34.418 -79.855,37.477 -26.143,6.7737 -55.711,0.4736 -78.923,-13.075 -4.9217,10.51 -13.107,40.094 2.1758,41.931 22.304,-10.573 49.694,-16.325 70.827,0.1386 25.703,22.688 -3.4949,53.096 -21.227,69.351 -18.89,13.026 16.894,5.231 21.614,6.7958 z m -221.37997,-10.083 c 24.019,-11.319 31.515,-45.734 43.855,-69.083 16.502,-23.41 15.66,-53.262 26.882,-78.27 9.63677,-34.404 5.85427,-70.70803 2.874,-106.12003 -6.6542,-24.197 -10.675,-52.876 -28.324,-72.632 -19.018,-13.653 -41.649,-4.1982 -61.901,-2.705 -26.961,4.2305 -54.89,11.667 -81.76,1.7096 -21.034,-13.192 -28.697,19.461 -31.718,34.647 -1.569,16.115 -9.3364,46.395 14.837,26.152 29.686,-11.572 65.399,-26.336 94.91,-6.7932 29.705,17.071 54.492,47.684 53.703,83.11603 0.48356,24.408 -2.3902,48.83 -17.442,69.079 -15.148,25.29 -45.158,45.484 -75.866,38.898 -20.489,5.3508 -56.468,-27.052 -68.309,-12.289 2.0554,29.896 1.8209,68.342 31.428,85.129 22.331,9.3182 46.79,5.5189 70.381,9.1777 8.7887,0.5061 17.69,1.3001 26.45,-0.017 z m -97.789,-15.545 c -8.4827,-12.439 -18.205,-31.322 0.10097,-8.8105 3.8111,0.9575 5.409,16.073 -0.10097,8.8105 z m 549.51997,-12.573 c -1.2755,-1.8779 -1.5738,1.0419 0,0 z m -10.93,-1.9459 c -1.3965,-1.9614 -1.3963,1.9615 0,0 z m -572.17997,-14.827 c -1.8966,-0.9425 -0.9018,2.5525 0,0 z m 186.9,-7.5899 c -0.66081,-1.9991 -1.3479,1.9476 0,0 z m 366.57997,-32.485 c -3.7958,-4.8213 -0.7834,8.0274 0,0 z m -466.75997,-10.802 c 35.935,-2.6442 56.108,-41.409 56.472,-74.263 5.2134,-38.00403 -13.873,-85.65403 -54.929,-93.01703 -27.098,-5.7896 -54.495,2.7578 -78.3,16.209 -31.916,27.24 28.088,-0.077 43.408,-1.1024 25.143,-5.9932 52.554,12.092 54.987,37.75 1.2715,11.513 5.2412,19.10503 5.8086,29.91903 3.0326,18.203 8.029,44.236 -10.403,54.894 -25.886,28.483 -62.34,5.0611 -92.588,0.2699 -28.215,4.718 26.879,17.718 37.735,23.142 12.349,2.4553 25.403,6.0976 37.809,6.1999 z m 467.24997,-4.6129 c -2.4723,-12.663 -1.1969,14.646 0,0 z m -187.55,-12.002 c 35.21,-0.6276 74.276,-23.92 77.717,-61.949 -1.5589,-15.824 33.987,-63.56303 0.7041,-36.25903 -12.43,21.87603 -27.552,44.38303 -50.154,57.15403 -28.36,15.071 -61.502,13.679 -90.145,0.8422 -18.799,-13.241 -27.722,38.294 0.4918,32.195 19.696,6.7017 40.708,8.5717 61.386,8.017 z m 184.56,-5.8083 c -3.277,-1.2919 0.8128,3.7384 0,0 z m -0.5654,-16.193 c -0.3427,-9.5289 -5.3112,4.4236 0,0 z m -470.45997,12.264 c 40.013,-9.9971 -12.676,-11.436 -19.634,-24.26 -16.677,-16.622 -18.91,-43.17 -3.9171,-62.03403 4.2544,-13.47 41.538,-25.02 8.4239,-26.596 -20.161,-3.8875 -39.494,8.5537 -60.077,11.944 -18.114,10.151 -6.9118,39.62903 -8.4071,57.13503 -5.4027,33.458 29.086,29.18 50.65,38.648 10.371,4.5246 21.63,6.5001 32.961,5.163 z m 23.955,-21.496 c -1.1347,-21.026 4.9294,-68.46303 -19.646,-74.07603 -18.293,9.7838 -20.337,19.522 -27.432,32.14203 2.1463,21.239 19.99,41.759 42.335,43.056 z m 447.49997,-12.779 c -1.6895,-2.9556 -0.9709,3.7108 0,0 z m -581.18997,-2.1547 c -2.0332,-2.0531 -2.9869,2.0016 0,0 z m 581.25997,-2.5287 c -4.3949,-3.4216 1.3955,6.2982 0,0 z m -176.24,-0.4964 c 33.911,-6.7648 39.828,-58.18003 71.056,-63.13103 35.317,-10.341 13.684,-51.949 13.812,-77.932 -7.9828,-46.066 -35.282,-10.979 -42.037,9.2557 -7.8732,22.47 -20.105,46.49 -45.779,51.489 -19.858,14.94 -59.866,-10.942 -57.985,26.821 -19.078,27.07303 -5.3739,48.22603 25.07,51.31703 11.686,3.3293 23.846,3.6014 35.863,2.1808 z m 199.97,-45.59903 c -3.6249,-2.1644 -0.081,2.6355 0,0 z m -466.99997,-3.8636 c -0.66092,-1.999 -1.3478,1.9476 0,0 z m 454.66997,-18.066 c 17.038,-22.564 59.571,-6.3137 67.771,-38.165 8.2577,-18.297 -8.8227,-49.113 -10.935,-14.291 -7.5492,24.728 -39.956,19.807 -54.152,36.895 -5.8789,4.6251 -14.363,39.34 -2.6831,15.561 z m -206.59,-31.588 c 30.513,-6.599 43.514,-35.067 55.666,-59.993 14.601,-12.736 17.253,-21.833 -5.3702,-13.428 -20.873,13.47 -28.412,46.856 -56.814,51.455 -15.223,2.0586 -32.687,2.4311 -23.52,21.394 9.6193,2.2579 20.432,2.8935 30.039,0.5725 z m -21.556,-42.227 c 31.247,-9.0088 49.633,-44.592 88.925,-43.296 57.481,16.5 -24.362,-38.54 -44.274,-32.473 -18.123,4.9525 -77.184,-1.5128 -60.251,28.776 14.065,9.6617 -4.6422,53.005 15.6,46.993 z m 28.406,-17.469 c -1.4007,-2.0251 -2.1009,1.9602 0,0 z"
     id="path827"
     inkscape:connector-curvature="0"
     style="stroke-width:9.82680035;stroke-dasharray:9.82677165, 29.48031496" />
  <path
     style="fill:#000000;fill-opacity:1;stroke:#ffffff;stroke-width:9.82677174;stroke-linecap:round;stroke-miterlimit:4;stroke-dasharray:none;stroke-dashoffset:0;stroke-opacity:1"
     d="M 678.11576,632.46006 V 1482.46 H 1528.1158 V 632.46006 Z m 50,50 H 1478.1158 V 1432.46 H 728.11576 Z"
     id="rect1394"
     inkscape:connector-curvature="0" />
</svg>
